<?xml version="1.0" standalone="no"?>
<!DOCTYPE svg PUBLIC "-//W3C//DTD SVG 20010904//EN"
 "http://www.w3.org/TR/2001/REC-SVG-20010904/DTD/svg10.dtd">
<svg version="1.0" xmlns="http://www.w3.org/2000/svg"
 width="512.000000pt" height="512.000000pt" viewBox="0 0 512.000000 512.000000"
 preserveAspectRatio="xMidYMid meet">
<metadata>
Created by potrace 1.14, written by Peter Selinger 2001-2017
</metadata>
<g transform="translate(0.000000,512.000000) scale(0.100000,-0.100000)"
fill="#000000" stroke="none">
<path d="M3980 4245 c-75 -17 -122 -53 -134 -102 -18 -66 -23 -72 -58 -63 -18
5 -49 11 -68 14 -19 3 -46 8 -60 10 -14 3 -41 7 -61 10 -20 3 -42 8 -50 10 -8
3 -30 7 -49 10 -19 3 -105 17 -190 32 -192 32 -300 29 -540 -16 -91 -16 -178
-33 -195 -36 -16 -2 -37 -7 -45 -9 -8 -2 -35 -7 -60 -10 -25 -3 -52 -8 -61
-11 -10 -3 -30 -7 -45 -9 -74 -11 -101 -15 -124 -20 -14 -3 -41 -8 -60 -11
-19 -3 -37 -7 -40 -9 -3 -2 -26 -6 -50 -9 -43 -6 -60 -9 -120 -21 -14 -3 -40
-8 -59 -11 -18 -3 -43 -8 -55 -10 -11 -2 -34 -7 -51 -10 -16 -2 -91 -16 -165
-29 -74 -13 -148 -26 -165 -29 -16 -2 -30 -5 -30 -6 0 -3 -74 -16 -150 -26
-11 -1 -20 -3 -20 -4 0 -1 -11 -3 -25 -6 -14 -2 -41 -6 -60 -10 -19 -3 -37 -6
-40 -7 -3 0 -21 -4 -40 -9 -19 -4 -57 -11 -85 -14 -27 -3 -54 -8 -58 -11 -4
-2 -22 -6 -40 -9 -18 -2 -54 -8 -82 -13 -27 -6 -66 -13 -85 -16 -19 -3 -42 -7
-50 -9 -8 -1 -35 -6 -60 -10 -48 -8 -56 -9 -110 -19 -19 -4 -46 -9 -60 -11
-114 -20 -308 -58 -320 -63 -8 -3 -18 -6 -21 -5 -4 1 -14 -7 -23 -17 -16 -17
-15 -35 9 -151 2 -8 4 -27 4 -41 1 -38 20 -57 75 -77 26 -9 48 -20 48 -24 0
-4 8 -43 18 -87 21 -96 30 -83 -126 -177 -150 -90 -147 -86 -118 -176 34 -106
42 -117 73 -113 70 10 109 17 136 25 17 5 44 11 62 13 17 3 36 8 42 11 14 9
19 -2 30 -70 6 -32 13 -70 16 -84 3 -14 7 -36 10 -50 7 -38 14 -70 25 -125 6
-27 12 -59 14 -70 3 -11 11 -54 20 -95 8 -41 17 -86 20 -100 3 -14 10 -50 16
-80 6 -30 14 -66 16 -80 3 -14 9 -43 14 -64 5 -22 7 -44 4 -48 -3 -4 0 -8 6
-8 6 0 9 -4 6 -8 -3 -5 -1 -24 4 -43 5 -19 12 -47 14 -64 3 -16 8 -39 10 -50
2 -11 9 -48 16 -82 7 -35 18 -67 24 -72 12 -10 229 -119 1127 -565 255 -126
455 -220 482 -225 60 -11 131 -6 182 13 33 11 338 145 560 246 54 24 101 46
180 80 28 13 87 40 133 61 45 21 85 38 87 38 3 1 39 17 81 36 41 19 77 35 79
35 4 0 58 24 195 88 30 14 57 26 60 26 3 1 59 25 125 55 66 30 143 64 170 77
28 12 133 59 234 104 101 45 207 92 235 105 28 12 74 33 103 45 60 25 64 31
77 113 4 27 9 59 12 70 5 29 62 361 70 411 3 21 8 48 10 60 4 21 10 57 18 109
3 15 10 54 16 87 6 34 13 77 16 98 2 20 6 44 9 52 3 8 7 33 10 55 2 22 7 51
10 65 6 31 16 88 20 115 1 11 7 47 14 80 6 33 13 77 15 97 2 21 6 41 9 45 3 4
8 32 11 62 4 30 9 64 11 75 3 12 7 33 9 49 9 54 16 65 50 71 43 8 55 23 62 77
3 24 9 58 12 74 14 61 9 89 -20 103 -15 7 -40 15 -55 17 -16 2 -55 9 -88 16
-33 6 -71 13 -85 15 -14 1 -36 5 -50 8 -37 8 -67 13 -260 46 -96 17 -188 33
-205 36 -16 3 -39 7 -50 9 -11 1 -22 3 -25 4 -3 0 -6 23 -8 49 -2 64 -22 108
-66 154 -54 55 -107 66 -206 43z m-1029 -429 c11 -92 -5 -113 -99 -131 -9 -2
-17 -4 -17 -5 0 -1 -8 -3 -19 -5 -10 -2 -40 -9 -66 -15 -26 -6 -54 -13 -61
-14 -8 -2 -25 -6 -39 -9 -14 -4 -37 -9 -53 -11 -15 -3 -35 -7 -45 -10 -9 -3
-28 -7 -42 -10 -14 -2 -96 -20 -183 -40 -87 -20 -169 -38 -183 -40 -13 -3 -32
-7 -42 -10 -9 -3 -28 -7 -42 -10 -14 -2 -78 -16 -142 -30 -162 -36 -175 -35
-226 16 -47 46 -50 53 -24 67 23 12 546 128 607 135 12 1 25 5 30 8 6 3 32 9
59 12 27 4 53 9 58 12 5 3 20 7 33 10 26 4 55 10 90 17 11 2 38 8 60 12 22 5
45 9 50 11 43 10 171 35 202 40 21 3 39 7 40 8 8 7 53 0 54 -8z m314 5 c11 -6
18 -7 53 -9 37 -3 25 -15 -46 -49 -101 -47 -107 -47 -108 7 -1 25 1 49 3 53 5
9 81 7 98 -2z m425 -87 c14 -3 79 -16 144 -30 66 -13 135 -27 155 -30 20 -3
39 -8 42 -10 4 -2 27 -6 50 -9 24 -3 60 -11 78 -17 35 -11 34 -11 -75 -40
-187 -49 -216 -51 -319 -24 -43 12 -63 16 -85 20 -14 3 -36 7 -50 10 -14 3
-36 8 -50 11 -14 3 -36 7 -50 10 -14 2 -45 10 -70 17 l-44 12 99 47 c65 31
109 46 125 43 14 -3 36 -7 50 -10z m-310 -233 c47 -11 99 -22 114 -25 52 -9
50 -21 -5 -30 -20 -3 -48 -10 -63 -16 -15 -5 -37 -12 -49 -14 -12 -2 -43 -9
-68 -15 -38 -8 -56 -7 -95 6 -27 8 -52 18 -56 22 -11 10 -16 74 -8 97 8 21 10
22 77 9 37 -8 106 -23 153 -34z m-430 -27 c0 -33 -52 -67 -121 -79 -18 -3 -36
-8 -41 -11 -4 -3 -17 -7 -28 -9 -12 -2 -132 -32 -268 -65 -136 -34 -254 -63
-262 -65 -8 -2 -42 -10 -75 -18 -135 -35 -146 -36 -181 -8 -19 15 -22 22 -13
26 16 5 462 114 498 121 13 3 67 16 120 29 189 47 276 68 293 70 10 0 21 4 24
8 9 8 54 9 54 1z m1870 -69 c0 -17 -22 -55 -29 -51 -5 3 -26 8 -47 12 -22 3
-40 7 -42 9 -2 2 16 9 39 17 42 14 79 20 79 13z m-385 -145 c28 -6 66 -15 85
-20 19 -5 48 -12 64 -15 25 -5 29 -18 5 -21 -5 -1 -10 -2 -11 -4 -3 -2 -18 -5
-56 -14 -12 -3 -27 -8 -32 -11 -5 -3 -18 -8 -27 -10 -10 -2 -40 -10 -66 -19
-27 -8 -58 -12 -70 -10 -61 13 -241 62 -234 64 4 1 10 3 15 4 16 4 131 39 182
56 30 9 64 16 75 14 11 -2 43 -8 70 -14z m-571 -176 c11 -3 31 -7 43 -10 12
-2 34 -9 48 -14 15 -6 37 -10 51 -10 49 0 22 -20 -63 -45 -49 -14 -100 -30
-115 -35 -20 -6 -48 -3 -100 12 -40 11 -84 22 -97 24 -33 7 -43 13 -35 25 8
13 76 47 105 53 13 2 35 9 49 14 15 6 37 6 59 0 18 -5 43 -12 55 -14z m896 -6
c0 -29 -16 -38 -50 -31 l-35 6 40 18 c22 10 41 18 43 18 1 1 2 -5 2 -11z
m-3687 -92 c39 -17 45 -23 25 -23 -7 0 -62 -12 -121 -28 -114 -28 -107 -29
-199 8 -24 10 -17 13 75 37 111 29 162 30 220 6z m3427 -63 c8 -4 26 -8 39
-10 55 -9 53 -20 -6 -38 -32 -10 -64 -22 -70 -28 -7 -5 -13 -7 -13 -3 0 3 -21
-2 -46 -12 -42 -17 -51 -17 -98 -4 -28 7 -80 22 -116 31 -65 17 -68 23 -18 35
38 9 34 8 117 37 72 25 76 25 135 12 34 -8 68 -17 76 -20z m-3071 -112 c24
-21 42 -44 39 -51 -4 -14 -74 -40 -83 -32 -3 3 -15 7 -27 9 -11 2 -35 10 -52
17 -17 8 -56 22 -86 32 l-55 17 69 21 c115 35 144 33 195 -13z m2532 -58 c54
-14 99 -29 99 -33 0 -7 -124 -50 -159 -56 -20 -4 -34 5 -65 43 -22 27 -25 36
-16 53 14 26 21 25 141 -7z m739 -15 c0 -16 -3 -19 -11 -11 -6 6 -19 9 -28 6
-12 -3 -11 -1 3 11 27 22 36 20 36 -6z m-3666 -77 c28 -10 46 -20 40 -23 -7
-4 -69 -21 -69 -19 0 0 -29 -8 -64 -19 -35 -10 -69 -16 -75 -13 -6 4 -56 24
-111 44 -95 35 -99 38 -72 48 15 6 38 13 50 15 12 3 45 11 72 19 47 13 54 12
115 -11 36 -13 87 -32 114 -41z m1766 -1 c0 -8 -147 -60 -171 -60 -43 0 48 41
123 55 11 3 23 7 26 10 9 8 22 6 22 -5z m1625 -36 c11 -1 20 -3 20 -4 0 -1 8
-3 17 -5 67 -13 117 -45 70 -45 -10 0 -23 -5 -30 -12 -7 -7 -12 -8 -12 -4 0 5
-6 4 -12 -1 -14 -11 -116 -47 -133 -47 -5 0 -28 5 -50 12 -22 7 -58 18 -80 24
-22 6 -43 14 -47 18 -14 11 185 80 212 73 14 -3 34 -7 45 -9z m-2968 -121 c57
-20 99 -40 95 -44 -4 -3 -50 -18 -103 -34 -90 -26 -98 -26 -130 -12 -19 8 -62
26 -96 39 -62 23 -80 38 -45 38 9 0 36 7 60 15 24 9 52 17 62 18 11 2 23 6 26
10 12 12 25 9 131 -30z m3193 -73 c0 -5 -4 -10 -10 -10 -5 0 -10 5 -10 10 0 6
5 10 10 10 6 0 10 -4 10 -10z m-3700 -61 c19 -11 40 -19 46 -19 6 0 26 -8 45
-17 l34 -17 -60 -18 c-73 -23 -97 -29 -110 -30 -11 -1 -162 57 -185 72 -20 12
-15 15 65 38 76 22 110 20 165 -9z m946 -30 c44 -18 81 -33 83 -35 8 -7 -6
-14 -94 -45 -66 -22 -94 -28 -109 -21 -12 5 -55 22 -96 38 -65 24 -72 29 -50
35 25 7 184 57 186 58 1 1 37 -13 80 -30z m2557 -39 c63 -20 89 -40 49 -40
-10 0 -23 -5 -30 -12 -7 -7 -12 -9 -12 -6 0 4 -25 -4 -56 -18 -32 -14 -67 -23
-82 -20 -15 2 -27 5 -27 6 0 1 -7 3 -15 5 -38 8 -70 26 -70 39 0 21 130 78
160 70 8 -2 45 -13 83 -24z m-3048 -116 c28 -12 63 -26 78 -29 38 -10 26 -18
-67 -48 -76 -24 -82 -25 -120 -10 -23 9 -45 19 -51 23 -5 3 -29 12 -53 20 -23
7 -40 16 -36 19 13 14 161 57 179 53 11 -3 43 -15 70 -28z m-450 -128 c22 -10
57 -24 78 -33 20 -8 37 -18 37 -22 0 -6 -79 -30 -105 -32 -5 -1 -17 -5 -26
-10 -12 -6 -43 3 -104 32 -48 22 -85 42 -83 45 3 2 15 6 26 9 11 2 30 9 41 15
12 6 21 7 21 3 0 -4 6 -1 12 5 15 15 50 11 103 -12z"/>
</g>
</svg>
